<svg width="20" height="20" viewBox="0 0 20 20" fill="none" xmlns="http://www.w3.org/2000/svg">
<g clip-path="url(#clip0_2054_530)">
<path d="M19.9895 10.1871C19.9895 9.3677 19.9214 8.76977 19.7742 8.14969H10.1992V11.848H15.8195C15.7062 12.7671 15.0943 14.1512 13.7346 15.0813L13.7155 15.2051L16.7429 17.4969L16.9527 17.5174C18.8789 15.7789 19.9895 13.2211 19.9895 10.1871Z" fill="#4285F4"/>
<path d="M10.1963 19.9314C12.9498 19.9314 15.2613 19.0456 16.9498 17.5175L13.7317 15.0814C12.8705 15.6683 11.7147 16.078 10.1963 16.078C7.49949 16.078 5.21059 14.3396 4.39466 11.9368L4.27506 11.9467L1.12711 14.3274L1.08594 14.4392C2.76295 17.6946 6.20767 19.9314 10.1963 19.9314Z" fill="#34A853"/>
<path d="M4.3965 11.9368C4.18121 11.3167 4.05661 10.6523 4.05661 9.96583C4.05661 9.27927 4.18121 8.61492 4.38517 7.99484L4.37947 7.86278L1.19206 5.44385L1.08778 5.49232C0.3966 6.84324 0 8.36026 0 9.96583C0 11.5714 0.3966 13.0884 1.08778 14.4393L4.3965 11.9368Z" fill="#FBBC05"/>
<path d="M10.1963 3.85336C12.1113 3.85336 13.403 4.66168 14.1396 5.33718L17.0177 2.59107C15.2501 0.985496 12.9498 0 10.1963 0C6.20767 0 2.76295 2.23672 1.08594 5.49214L4.38333 7.99466C5.21059 5.59183 7.49949 3.85336 10.1963 3.85336Z" fill="#EB4335"/>
</g>
<defs>
<clipPath id="clip0_2054_530">
<rect width="20" height="20" fill="white"/>
</clipPath>
</defs>
</svg>
